<svg width="512" height="512" viewBox="0 0 512 512" fill="none" xmlns="http://www.w3.org/2000/svg">
<rect width="512" height="512" rx="60" fill="url(#paint0_linear_8_1146)"/>
<circle opacity="0.35" cx="256" cy="256" r="210" fill="url(#paint1_radial_8_1146)"/>
<path fill-rule="evenodd" clip-rule="evenodd" d="M272.647 229.888C276.426 230.46 279.721 232.762 281.557 236.113L312.243 292.113C314.323 295.909 314.245 300.519 312.04 304.243C309.834 307.967 305.828 310.25 301.5 310.25H210.5C206.16 310.25 202.143 307.953 199.942 304.212C197.741 300.471 197.684 295.845 199.792 292.051L217.292 260.551C219.452 256.662 223.551 254.25 228 254.25H240.543L262.295 233.198C265.04 230.54 268.869 229.316 272.647 229.888ZM267.79 261.974L254.019 275.302C251.735 277.514 248.68 278.75 245.5 278.75H235.208L231.319 285.75H280.819L267.79 261.974Z" fill="white"/>
<path fill-rule="evenodd" clip-rule="evenodd" d="M182.5 182.5V329.5H329.5V182.5H182.5ZM179 158C167.402 158 158 167.402 158 179V333C158 344.598 167.402 354 179 354H333C344.598 354 354 344.598 354 333V179C354 167.402 344.598 158 333 158H179Z" fill="white"/>
<path fill-rule="evenodd" clip-rule="evenodd" d="M137 137V375H375V137H137ZM133.5 112.5C121.902 112.5 112.5 121.902 112.5 133.5V378.5C112.5 390.098 121.902 399.5 133.5 399.5H378.5C390.098 399.5 399.5 390.098 399.5 378.5V133.5C399.5 121.902 390.098 112.5 378.5 112.5H133.5Z" fill="white"/>
<path fill-rule="evenodd" clip-rule="evenodd" d="M198.25 217.5C198.25 210.735 203.735 205.25 210.5 205.25H210.646C217.411 205.25 222.896 210.735 222.896 217.5C222.896 224.265 217.411 229.75 210.646 229.75H210.5C203.735 229.75 198.25 224.265 198.25 217.5Z" fill="white"/>
<defs>
<linearGradient id="paint0_linear_8_1146" x1="0" y1="0" x2="512" y2="512" gradientUnits="userSpaceOnUse">
<stop stop-color="#9C4DF9"/>
<stop offset="1" stop-color="#00B3F9"/>
</linearGradient>
<radialGradient id="paint1_radial_8_1146" cx="0" cy="0" r="1" gradientUnits="userSpaceOnUse" gradientTransform="translate(256 256) rotate(90) scale(210)">
<stop stop-color="white"/>
<stop offset="1" stop-color="white" stop-opacity="0"/>
</radialGradient>
</defs>
</svg>
